<?xml version="1.0" standalone="no"?>
<!DOCTYPE svg PUBLIC "-//W3C//DTD SVG 20010904//EN"
 "http://www.w3.org/TR/2001/REC-SVG-20010904/DTD/svg10.dtd">
<svg version="1.0" xmlns="http://www.w3.org/2000/svg"
 width="880.000000pt" height="882.000000pt" viewBox="0 0 880.000000 882.000000"
 preserveAspectRatio="xMidYMid meet">
<metadata>
Created by potrace 1.15, written by Peter Selinger 2001-2017
</metadata>
<g transform="translate(0.000000,882.000000) scale(0.100000,-0.100000)"
fill="#000000" stroke="none">
<path d="M3325 8394 c-286 -30 -493 -73 -735 -154 -1375 -454 -2270 -1798
-2160 -3241 48 -619 262 -1183 643 -1689 122 -162 401 -446 557 -566 448 -345
918 -551 1465 -640 198 -32 588 -44 793 -24 760 73 1438 398 1972 946 428 439
712 973 833 1564 165 804 17 1627 -418 2330 -215 347 -566 709 -909 939 -407
273 -823 435 -1321 513 -102 16 -189 21 -405 23 -151 2 -293 1 -315 -1z m560
-758 c560 -82 1029 -323 1425 -732 346 -357 565 -794 651 -1299 26 -155 36
-449 20 -618 -51 -544 -291 -1065 -674 -1463 -621 -646 -1540 -898 -2409 -660
-477 131 -914 415 -1231 801 -361 439 -557 984 -557 1550 0 820 399 1568 1083
2029 335 226 717 362 1137 406 115 12 432 4 555 -14z"/>
<path d="M6443 3411 c-128 -231 -332 -473 -582 -693 -130 -115 -339 -275 -449
-346 l-63 -41 833 -846 c546 -555 859 -866 908 -902 94 -69 234 -137 325 -159
85 -20 231 -23 305 -5 220 53 463 268 580 512 53 112 73 195 73 304 0 151 -52
300 -153 434 -27 36 -434 450 -904 920 l-855 855 -18 -33z"/>
</g>
</svg>
